<svg style="display: none;" xmlns="http://www.w3.org/2000/svg">
   <symbol id="facebook" fill="white" viewBox="0 0 16 16">
    <path d="M16 8.049c0-4.446-3.582-8.05-8-8.05C3.58 0-.002 3.603-.002 8.05c0 4.017 2.926 7.347 6.75 7.951v-5.625h-2.03V8.05H6.75V6.275c0-2.017 1.195-3.131 3.022-3.131.876 0 1.791.157 1.791.157v1.98h-1.009c-.993 0-1.303.621-1.303 1.258v1.51h2.218l-.354 2.326H9.25V16c3.824-.604 6.75-3.934 6.75-7.951z"/>
    </symbol>
   <symbol fill="white" id="twitter" viewBox="0 0 16 16">
  <path d="M5.026 15c6.038 0 9.341-5.003 9.341-9.334 0-.14 0-.282-.006-.422A6.685 6.685 0 0 0 16 3.542a6.658 6.658 0 0 1-1.889.518 3.301 3.301 0 0 0 1.447-1.817 6.533 6.533 0 0 1-2.087.793A3.286 3.286 0 0 0 7.875 6.03a9.325 9.325 0 0 1-6.767-3.429 3.289 3.289 0 0 0 1.018 4.382A3.323 3.323 0 0 1 .64 6.575v.045a3.288 3.288 0 0 0 2.632 3.218 3.203 3.203 0 0 1-.865.115 3.23 3.23 0 0 1-.614-.057 3.283 3.283 0 0 0 3.067 2.277A6.588 6.588 0 0 1 .78 13.58a6.32 6.32 0 0 1-.78-.045A9.344 9.344 0 0 0 5.026 15z"/>
 </symbol>
    <symbol  fill="white" id="globe2" viewBox="0 0 16 16">
  <path d="M0 8a8 8 0 1 1 16 0A8 8 0 0 1 0 8zm7.5-6.923c-.67.204-1.335.82-1.887 1.855-.143.268-.276.56-.395.872.705.157 1.472.257 2.282.287V1.077zM4.249 3.539c.142-.384.304-.744.481-1.078a6.7 6.7 0 0 1 .597-.933A7.01 7.01 0 0 0 3.051 3.05c.362.184.763.349 1.198.49zM3.509 7.5c.036-1.07.188-2.087.436-3.008a9.124 9.124 0 0 1-1.565-.667A6.964 6.964 0 0 0 1.018 7.5h2.49zm1.4-2.741a12.344 12.344 0 0 0-.4 2.741H7.5V5.091c-.91-.03-1.783-.145-2.591-.332zM8.5 5.09V7.5h2.99a12.342 12.342 0 0 0-.399-2.741c-.808.187-1.681.301-2.591.332zM4.51 8.5c.035.987.176 1.914.399 2.741A13.612 13.612 0 0 1 7.5 10.91V8.5H4.51zm3.99 0v2.409c.91.03 1.783.145 2.591.332.223-.827.364-1.754.4-2.741H8.5zm-3.282 3.696c.12.312.252.604.395.872.552 1.035 1.218 1.65 1.887 1.855V11.91c-.81.03-1.577.13-2.282.287zm.11 2.276a6.696 6.696 0 0 1-.598-.933 8.853 8.853 0 0 1-.481-1.079 8.38 8.38 0 0 0-1.198.49 7.01 7.01 0 0 0 2.276 1.522zm-1.383-2.964A13.36 13.36 0 0 1 3.508 8.5h-2.49a6.963 6.963 0 0 0 1.362 3.675c.47-.258.995-.482 1.565-.667zm6.728 2.964a7.009 7.009 0 0 0 2.275-1.521 8.376 8.376 0 0 0-1.197-.49 8.853 8.853 0 0 1-.481 1.078 6.688 6.688 0 0 1-.597.933zM8.5 11.909v3.014c.67-.204 1.335-.82 1.887-1.855.143-.268.276-.56.395-.872A12.63 12.63 0 0 0 8.5 11.91zm3.555-.401c.57.185 1.095.409 1.565.667A6.963 6.963 0 0 0 14.982 8.5h-2.49a13.36 13.36 0 0 1-.437 3.008zM14.982 7.5a6.963 6.963 0 0 0-1.362-3.675c-.47.258-.995.482-1.565.667.248.92.4 1.938.437 3.008h2.49zM11.27 2.461c.177.334.339.694.482 1.078a8.368 8.368 0 0 0 1.196-.49 7.01 7.01 0 0 0-2.275-1.52c.218.283.418.597.597.932zm-.488 1.343a7.765 7.765 0 0 0-.395-.872C9.835 1.897 9.17 1.282 8.5 1.077V4.09c.81-.03 1.577-.13 2.282-.287z"/>
</symbol>
    <symbol fill="white" id="youtube" viewBox="0 0 16 16">
  <path d="M8.051 1.999h.089c.822.003 4.987.033 6.11.335a2.01 2.01 0 0 1 1.415 1.42c.101.38.172.883.22 1.402l.01.104.022.26.008.104c.065.914.073 1.77.074 1.957v.075c-.001.194-.01 1.108-.082 2.06l-.008.105-.009.104c-.05.572-.124 1.14-.235 1.558a2.007 2.007 0 0 1-1.415 1.42c-1.16.312-5.569.334-6.18.335h-.142c-.309 0-1.587-.006-2.927-.052l-.17-.006-.087-.004-.171-.007-.171-.007c-1.11-.049-2.167-.128-2.654-.26a2.007 2.007 0 0 1-1.415-1.419c-.111-.417-.185-.986-.235-1.558L.09 9.82l-.008-.104A31.4 31.4 0 0 1 0 7.68v-.123c.002-.215.01-.958.064-1.778l.007-.103.003-.052.008-.104.022-.26.01-.104c.048-.519.119-1.023.22-1.402a2.007 2.007 0 0 1 1.415-1.42c.487-.13 1.544-.21 2.654-.26l.17-.007.172-.006.086-.003.171-.007A99.788 99.788 0 0 1 7.858 2h.193zM6.4 5.209v4.818l4.157-2.408L6.4 5.209z"/>
</symbol>
<symbol  fill="white" id="google" viewBox="0 0 16 16">
  <path d="M15.545 6.558a9.42 9.42 0 0 1 .139 1.626c0 2.434-.87 4.492-2.384 5.885h.002C11.978 15.292 10.158 16 8 16A8 8 0 1 1 8 0a7.689 7.689 0 0 1 5.352 2.082l-2.284 2.284A4.347 4.347 0 0 0 8 3.166c-2.087 0-3.86 1.408-4.492 3.304a4.792 4.792 0 0 0 0 3.063h.003c.635 1.893 2.405 3.301 4.492 3.301 1.078 0 2.004-.276 2.722-.764h-.003a3.702 3.702 0 0 0 1.599-2.431H8v-3.08h7.545z"/>
</symbol>
<symbol  fill="currentColor" id="person" viewBox="0 0 16 16">
							<path
								d="M8 8a3 3 0 1 0 0-6 3 3 0 0 0 0 6zm2-3a2 2 0 1 1-4 0 2 2 0 0 1 4 0zm4 8c0 1-1 1-1 1H3s-1 0-1-1 1-4 6-4 6 3 6 4zm-1-.004c-.001-.246-.154-.986-.832-1.664C11.516 10.68 10.289 10 8 10c-2.29 0-3.516.68-4.168 1.332-.678.678-.83 1.418-.832 1.664h10z" />
</symbol>
</svg>