<svg aria-hidden="true" focusable="false" id="ic-bag" data-prefix="fas" data-icon="suitcase" class="svg-inline--fa fa-suitcase fa-w-16" role="img" xmlns="http://www.w3.org/2000/svg" width="20" style="width: 20px; height: auto;" viewBox="0 0 512 512"><path fill="#df1f26" d="M128 480h256V80c0-26.5-21.5-48-48-48H176c-26.5 0-48 21.5-48 48v400zm64-384h128v32H192V96zm320 80v256c0 26.5-21.5 48-48 48h-48V128h48c26.5 0 48 21.5 48 48zM96 480H48c-26.5 0-48-21.5-48-48V176c0-26.5 21.5-48 48-48h48v352z"></path></svg>